<svg width="200" height="134" viewBox="0 0 200 134" fill="none" xmlns="http://www.w3.org/2000/svg">
<rect width="200" height="133.333" rx="20" fill="white"/>
<path d="M88.9144 67.9959C88.9144 75.2819 83.2145 80.6509 76.2194 80.6509C69.2243 80.6509 63.5244 75.2819 63.5244 67.9959C63.5244 60.6585 69.2243 55.3408 76.2194 55.3408C83.2145 55.3408 88.9144 60.6585 88.9144 67.9959ZM83.3571 67.9959C83.3571 63.4428 80.0536 60.3275 76.2194 60.3275C72.3852 60.3275 69.0817 63.4428 69.0817 67.9959C69.0817 72.5033 72.3852 75.6642 76.2194 75.6642C80.0536 75.6642 83.3571 72.4976 83.3571 67.9959Z" fill="#EA4335"/>
<path d="M116.301 67.9959C116.301 75.2819 110.601 80.6509 103.606 80.6509C96.611 80.6509 90.9111 75.2819 90.9111 67.9959C90.9111 60.6642 96.611 55.3408 103.606 55.3408C110.601 55.3408 116.301 60.6585 116.301 67.9959ZM110.744 67.9959C110.744 63.4428 107.44 60.3275 103.606 60.3275C99.772 60.3275 96.4684 63.4428 96.4684 67.9959C96.4684 72.5033 99.772 75.6642 103.606 75.6642C107.44 75.6642 110.744 72.4976 110.744 67.9959Z" fill="#FBBC05"/>
<path d="M142.546 56.1054V78.8251C142.546 88.1709 137.035 91.988 130.519 91.988C124.385 91.988 120.694 87.8856 119.302 84.5307L124.14 82.5167C125.002 84.5764 127.113 87.007 130.513 87.007C134.684 87.007 137.269 84.4337 137.269 79.5897V77.7696H137.075C135.831 79.3044 133.435 80.6452 130.411 80.6452C124.083 80.6452 118.286 75.1336 118.286 68.0415C118.286 60.8981 124.083 55.3408 130.411 55.3408C133.429 55.3408 135.825 56.6816 137.075 58.1708H137.269V56.1111H142.546V56.1054ZM137.662 68.0415C137.662 63.5854 134.69 60.3275 130.907 60.3275C127.073 60.3275 123.861 63.5854 123.861 68.0415C123.861 72.452 127.073 75.6642 130.907 75.6642C134.69 75.6642 137.662 72.452 137.662 68.0415Z" fill="#4285F4"/>
<path d="M151.247 42.7886V79.8751H145.827V42.7886H151.247Z" fill="#34A853"/>
<path d="M172.37 72.1613L176.683 75.0369C175.291 77.0967 171.936 80.6455 166.139 80.6455C158.95 80.6455 153.581 75.0883 153.581 67.9905C153.581 60.4648 158.996 55.3354 165.517 55.3354C172.084 55.3354 175.297 60.5618 176.346 63.3861L176.923 64.8239L160.006 71.8304C161.301 74.3694 163.315 75.6646 166.139 75.6646C168.969 75.6646 170.932 74.2724 172.37 72.1613ZM159.093 67.6082L170.401 62.9125C169.779 61.332 167.908 60.2309 165.705 60.2309C162.881 60.2309 158.95 62.7242 159.093 67.6082Z" fill="#EA4335"/>
<path d="M43.0069 64.704V59.335H61.0994C61.2762 60.2707 61.3675 61.3776 61.3675 62.5758C61.3675 66.604 60.2663 71.585 56.7174 75.1339C53.2655 78.7284 48.8551 80.6455 43.0126 80.6455C32.1833 80.6455 23.0771 71.8246 23.0771 60.9953C23.0771 50.1661 32.1833 41.3452 43.0126 41.3452C49.0035 41.3452 53.2713 43.6959 56.4778 46.7598L52.6893 50.5484C50.3899 48.3916 47.2747 46.7142 43.0069 46.7142C35.0989 46.7142 28.914 53.0874 28.914 60.9953C28.914 68.9033 35.0989 75.2765 43.0069 75.2765C48.1362 75.2765 51.0575 73.2168 52.9289 71.3453C54.4466 69.8276 55.4451 67.6595 55.8388 64.6983L43.0069 64.704Z" fill="#4285F4"/>
</svg>
