<svg width="200" height="134" viewBox="0 0 200 134" fill="none" xmlns="http://www.w3.org/2000/svg">
<rect width="200" height="133.333" rx="20" fill="white"/>
<path d="M77.3902 69.1632L76.4731 71.7616H76.3967C76.2438 71.1757 75.9636 70.2841 75.5051 69.2141L70.5883 56.8585H65.7734V76.551H68.9579V64.3992C68.9579 63.635 68.9579 62.7688 68.9324 61.6989C68.9069 61.1639 68.856 60.7563 68.8305 60.4506H68.9069C69.0598 61.2148 69.2381 61.7753 69.3655 62.1319L75.2758 76.5001H77.5176L83.377 62.0046C83.5043 61.6734 83.6317 61.011 83.7591 60.4506H83.8355C83.7591 61.9027 83.7081 63.2019 83.6827 63.9916V76.4746H87.0709V56.8076H82.4344L77.3902 69.1632ZM90.2808 62.3612H93.5926V76.4746H90.2808V62.3612ZM91.9622 56.4C91.4017 56.4 90.9432 56.6038 90.561 56.9604C90.1789 57.3171 89.9751 57.7756 89.9751 58.3361C89.9751 58.8711 90.1789 59.3296 90.561 59.6863C90.9432 60.0429 91.4017 60.2213 91.9622 60.2213C92.5226 60.2213 93.0067 60.0175 93.3633 59.6863C93.7455 59.3296 93.9493 58.8711 93.9493 58.3361C93.9493 57.8011 93.7455 57.3426 93.3633 56.9604C93.0321 56.6038 92.5481 56.4 91.9622 56.4ZM105.337 62.2338C104.725 62.1065 104.088 62.03 103.477 62.03C101.974 62.03 100.598 62.3612 99.452 63.0236C98.3056 63.6859 97.3884 64.6031 96.8025 65.7494C96.1911 66.9213 95.8854 68.2715 95.8854 69.8255C95.8854 71.1757 96.1911 72.3731 96.777 73.4685C97.363 74.5385 98.1782 75.4046 99.2736 75.9906C100.318 76.5765 101.541 76.8822 102.917 76.8822C104.496 76.8822 105.846 76.551 106.916 75.9396L106.942 75.9141V72.8571L106.814 72.959C106.33 73.3156 105.77 73.6214 105.209 73.7997C104.623 74.0035 104.088 74.1054 103.63 74.1054C102.305 74.1054 101.261 73.7233 100.522 72.8826C99.7577 72.0674 99.3755 70.9464 99.3755 69.5453C99.3755 68.0932 99.7577 66.9468 100.547 66.1061C101.337 65.2654 102.382 64.8323 103.655 64.8323C104.725 64.8323 105.821 65.189 106.814 65.9023L106.942 66.0042V62.7688L106.916 62.7433C106.483 62.565 105.999 62.3612 105.337 62.2338ZM116.266 62.1319C115.451 62.1319 114.686 62.3867 114.024 62.9217C113.463 63.3802 113.081 64.0426 112.75 64.8323H112.725V62.3612H109.413V76.4746H112.725V69.2651C112.725 68.0422 112.979 67.0232 113.54 66.2844C114.1 65.5202 114.814 65.138 115.68 65.138C115.986 65.138 116.291 65.2145 116.673 65.2654C117.03 65.3673 117.285 65.4692 117.463 65.5966L117.59 65.6985V62.3867L117.514 62.3612C117.285 62.2084 116.826 62.1319 116.266 62.1319ZM125.284 62.0555C122.966 62.0555 121.106 62.7433 119.807 64.0935C118.482 65.4437 117.845 67.3034 117.845 69.6472C117.845 71.8381 118.508 73.6214 119.781 74.9206C121.055 76.1944 122.787 76.8567 124.953 76.8567C127.22 76.8567 129.029 76.1689 130.328 74.7932C131.653 73.4175 132.29 71.5833 132.29 69.316C132.29 67.0742 131.678 65.2909 130.43 63.9916C129.233 62.6924 127.475 62.0555 125.284 62.0555ZM127.933 72.908C127.322 73.6978 126.354 74.0799 125.157 74.0799C123.959 74.0799 122.991 73.6978 122.303 72.8571C121.616 72.0674 121.284 70.921 121.284 69.4689C121.284 67.9658 121.641 66.8194 122.303 66.0042C122.991 65.189 123.934 64.7814 125.131 64.7814C126.303 64.7814 127.22 65.1635 127.883 65.9532C128.545 66.743 128.902 67.8894 128.902 69.3924C128.851 70.921 128.57 72.1183 127.933 72.908ZM139.678 68.2206C138.633 67.7875 137.971 67.4563 137.665 67.1761C137.41 66.9213 137.283 66.5647 137.283 66.1061C137.283 65.724 137.436 65.3418 137.818 65.0871C138.2 64.8323 138.633 64.705 139.27 64.705C139.831 64.705 140.416 64.8069 140.977 64.9597C141.537 65.1126 142.047 65.3418 142.454 65.6475L142.582 65.7494V62.6414L142.505 62.616C142.123 62.4631 141.614 62.3103 141.002 62.1829C140.391 62.081 139.831 62.03 139.372 62.03C137.792 62.03 136.493 62.4122 135.474 63.2529C134.455 64.0426 133.971 65.1126 133.971 66.3609C133.971 67.0232 134.073 67.6092 134.302 68.0932C134.532 68.5772 134.863 69.0358 135.321 69.4179C135.78 69.7746 136.442 70.1822 137.359 70.5643C138.124 70.8955 138.71 71.1502 139.066 71.354C139.423 71.5578 139.652 71.7871 139.831 71.9655C139.958 72.1693 140.034 72.424 140.034 72.7552C140.034 73.6978 139.321 74.1563 137.869 74.1563C137.308 74.1563 136.723 74.0544 136.035 73.8252C135.347 73.5959 134.71 73.2647 134.175 72.8826L134.048 72.7807V76.016L134.124 76.0415C134.608 76.2708 135.194 76.4237 135.907 76.602C136.621 76.7294 137.257 76.8313 137.818 76.8313C139.525 76.8313 140.926 76.4491 141.92 75.6084C142.939 74.7932 143.474 73.7487 143.474 72.3985C143.474 71.4559 143.219 70.6153 142.658 69.9784C141.92 69.367 141.002 68.7301 139.678 68.2206ZM152.212 62.0555C149.893 62.0555 148.034 62.7433 146.734 64.0935C145.435 65.4437 144.773 67.3034 144.773 69.6472C144.773 71.8381 145.435 73.6214 146.709 74.9206C147.983 76.1944 149.715 76.8567 151.88 76.8567C154.148 76.8567 155.956 76.1689 157.256 74.7932C158.58 73.4175 159.217 71.5833 159.217 69.316C159.217 67.0742 158.606 65.2909 157.358 63.9916C156.16 62.6924 154.402 62.0555 152.212 62.0555ZM154.836 72.908C154.224 73.6978 153.256 74.0799 152.059 74.0799C150.836 74.0799 149.893 73.6978 149.205 72.8571C148.518 72.0674 148.186 70.921 148.186 69.4689C148.186 67.9658 148.543 66.8194 149.205 66.0042C149.893 65.189 150.836 64.7814 152.033 64.7814C153.18 64.7814 154.122 65.1635 154.785 65.9532C155.447 66.743 155.804 67.8894 155.804 69.3924C155.804 70.921 155.472 72.1183 154.836 72.908ZM176.923 65.0871V62.3612H173.585V58.1832L173.484 58.2087L170.325 59.1513L170.248 59.1768V62.3612H165.255V60.5779C165.255 59.7627 165.459 59.1258 165.815 58.7182C166.172 58.3106 166.707 58.1068 167.369 58.1068C167.828 58.1068 168.312 58.2087 168.847 58.438L168.974 58.5144V55.6357L168.898 55.6102C168.439 55.4574 167.828 55.3555 167.038 55.3555C166.045 55.3555 165.179 55.5847 164.389 55.9669C163.599 56.4 163.013 56.9859 162.58 57.7756C162.147 58.5399 161.918 59.4061 161.918 60.3996V62.3612H159.599V65.0616H161.918V76.4746H165.255V65.0871H170.248V72.3476C170.248 75.3282 171.649 76.8313 174.452 76.8313C174.91 76.8313 175.394 76.7548 175.853 76.6784C176.337 76.5765 176.693 76.4491 176.897 76.3472L176.923 76.3217V73.5959L176.795 73.6978C176.592 73.8252 176.413 73.9271 176.108 74.0035C175.853 74.0799 175.623 74.1054 175.445 74.1054C174.783 74.1054 174.324 73.9525 173.993 73.5704C173.687 73.2137 173.535 72.6278 173.535 71.7616V65.0871H176.923Z" fill="#737373"/>
<path d="M23.0771 50.2349H38.6936V65.8513H23.0771V50.2349Z" fill="#F25022"/>
<path d="M40.3242 50.2349H55.9407V65.8513H40.3242V50.2349Z" fill="#7FBA00"/>
<path d="M23.0771 67.4819H38.6936V83.0984H23.0771V67.4819Z" fill="#00A4EF"/>
<path d="M40.3242 67.4819H55.9407V83.0984H40.3242V67.4819Z" fill="#FFB900"/>
</svg>
